<?xml version="1.0" encoding="iso-8859-1"?>
<!-- Uploaded to: SVG Repo, www.svgrepo.com, Generator: SVG Repo Mixer Tools -->
<svg version="1.1" id="Layer_1" xmlns="http://www.w3.org/2000/svg" xmlns:xlink="http://www.w3.org/1999/xlink" 
	 viewBox="0 0 512.001 512.001" xml:space="preserve">
<path style="fill:#8AACAD;" d="M406.254,1.547h79.892C500.427,1.547,512,13.123,512,27.401v457.2
	c0,14.278-11.573,25.853-25.854,25.853H25.854C11.575,510.454,0,498.879,0,484.601V27.4C0,13.123,11.575,1.547,25.854,1.547h354.755
	"/>
<g>
	<circle style="fill:#B4CCCB;" cx="410.487" cy="382.188" r="14.463"/>
	<circle style="fill:#B4CCCB;" cx="475.161" cy="382.188" r="14.463"/>
	<circle style="fill:#B4CCCB;" cx="442.824" cy="414.524" r="14.463"/>
	<circle style="fill:#B4CCCB;" cx="442.824" cy="349.851" r="14.463"/>
	<path style="fill:#B4CCCB;" d="M88.43,369.668H73.845v-14.585c0-4.311-3.495-7.805-7.805-7.805h-9.423
		c-4.311,0-7.805,3.495-7.805,7.805v14.585H34.226c-4.311,0-7.805,3.495-7.805,7.805v9.423c0,4.311,3.495,7.805,7.805,7.805h14.585
		v14.585c0,4.311,3.495,7.805,7.805,7.805h9.423c4.311,0,7.805-3.495,7.805-7.805v-14.585H88.43c4.311,0,7.805-3.495,7.805-7.805
		v-9.423C96.235,373.162,92.741,369.668,88.43,369.668z"/>
</g>
<path style="fill:#A3BFBF;" d="M486.146,1.547h-50.895H121.913H25.854C11.575,1.547,0,13.123,0,27.4v228.601h72.612v-3.618
	c0-6.786,5.501-12.288,12.288-12.288h329.033c6.786,0,12.288,5.502,12.288,12.288v3.618h85.781V27.4
	C512,13.123,500.427,1.547,486.146,1.547z"/>
<g>
	<path style="fill:#53CAF9;" d="M363.068,42.352H135.763c-7.389,0-13.381,5.991-13.381,13.381V196.23
		c0,7.389,5.991,13.381,13.381,13.381h227.305c7.39,0,13.381-5.991,13.381-13.381V55.732
		C376.449,48.343,370.459,42.352,363.068,42.352z"/>
	<path style="fill:#53CAF9;" d="M363.068,301.901H135.763c-7.389,0-13.381,5.991-13.381,13.381v140.498
		c0,7.389,5.991,13.381,13.381,13.381h227.305c7.39,0,13.381-5.991,13.381-13.381V315.282
		C376.449,307.892,370.459,301.901,363.068,301.901z"/>
</g>
<path style="fill:#547475;" d="M413.933,237.307H84.9c-8.313,0-15.076,6.762-15.076,15.076v7.237
	c0,8.313,6.762,15.076,15.076,15.076h329.033c8.313,0,15.076-6.762,15.076-15.076v-7.237
	C429.007,244.069,422.245,237.307,413.933,237.307z"/>
<g>
	<path style="fill:#CADDDC;" d="M414.98,181.083h-0.025c-4.62,0-8.363-3.743-8.363-8.363s3.743-8.363,8.363-8.363
		s8.375,3.743,8.375,8.363C423.33,177.34,419.599,181.083,414.98,181.083z"/>
	<path style="fill:#CADDDC;" d="M414.98,89.844h-0.025c-4.62,0-8.363-3.743-8.363-8.363c0-4.62,3.743-8.363,8.363-8.363
		s8.375,3.743,8.375,8.363C423.33,86.101,419.599,89.844,414.98,89.844z"/>
	<path style="fill:#CADDDC;" d="M414.98,120.259h-0.025c-4.62,0-8.363-3.743-8.363-8.363c0-4.62,3.743-8.363,8.363-8.363
		s8.375,3.743,8.375,8.363C423.33,116.515,419.599,120.259,414.98,120.259z"/>
	<path style="fill:#CADDDC;" d="M414.98,150.672h-0.025c-4.62,0-8.363-3.743-8.363-8.363c0-4.62,3.743-8.363,8.363-8.363
		s8.375,3.743,8.375,8.363C423.33,146.929,419.599,150.672,414.98,150.672z"/>
	<path style="fill:#CADDDC;" d="M441.741,181.083h-0.025c-4.62,0-8.363-3.743-8.363-8.363s3.743-8.363,8.363-8.363
		s8.375,3.743,8.375,8.363C450.092,177.34,446.361,181.083,441.741,181.083z"/>
	<path style="fill:#CADDDC;" d="M441.741,89.844h-0.025c-4.62,0-8.363-3.743-8.363-8.363c0-4.62,3.743-8.363,8.363-8.363
		s8.375,3.743,8.375,8.363C450.092,86.101,446.361,89.844,441.741,89.844z"/>
	<path style="fill:#CADDDC;" d="M441.741,120.259h-0.025c-4.62,0-8.363-3.743-8.363-8.363c0-4.62,3.743-8.363,8.363-8.363
		s8.375,3.743,8.375,8.363C450.092,116.515,446.361,120.259,441.741,120.259z"/>
	<path style="fill:#CADDDC;" d="M441.741,150.672h-0.025c-4.62,0-8.363-3.743-8.363-8.363c0-4.62,3.743-8.363,8.363-8.363
		s8.375,3.743,8.375,8.363C450.092,146.929,446.361,150.672,441.741,150.672z"/>
	<path style="fill:#CADDDC;" d="M468.503,181.083h-0.025c-4.62,0-8.363-3.743-8.363-8.363s3.743-8.363,8.363-8.363
		c4.62,0,8.375,3.743,8.375,8.363C476.853,177.34,473.122,181.083,468.503,181.083z"/>
	<path style="fill:#CADDDC;" d="M468.503,89.844h-0.025c-4.62,0-8.363-3.743-8.363-8.363c0-4.62,3.743-8.363,8.363-8.363
		c4.62,0,8.375,3.743,8.375,8.363C476.853,86.101,473.122,89.844,468.503,89.844z"/>
	<path style="fill:#CADDDC;" d="M468.503,120.259h-0.025c-4.62,0-8.363-3.743-8.363-8.363c0-4.62,3.743-8.363,8.363-8.363
		c4.62,0,8.375,3.743,8.375,8.363C476.853,116.515,473.122,120.259,468.503,120.259z"/>
	<path style="fill:#CADDDC;" d="M468.503,150.672h-0.025c-4.62,0-8.363-3.743-8.363-8.363c0-4.62,3.743-8.363,8.363-8.363
		c4.62,0,8.375,3.743,8.375,8.363C476.853,146.929,473.122,150.672,468.503,150.672z"/>
	<path style="fill:#CADDDC;" d="M34.578,181.083h-0.023c-4.619,0-8.363-3.743-8.363-8.363s3.744-8.363,8.363-8.363
		s8.375,3.743,8.375,8.363C42.929,177.34,39.195,181.083,34.578,181.083z"/>
	<path style="fill:#CADDDC;" d="M34.578,89.844h-0.023c-4.619,0-8.363-3.743-8.363-8.363c0-4.62,3.744-8.363,8.363-8.363
		s8.375,3.743,8.375,8.363C42.93,86.101,39.195,89.844,34.578,89.844z"/>
	<path style="fill:#CADDDC;" d="M34.578,120.259h-0.023c-4.619,0-8.363-3.743-8.363-8.363c0-4.62,3.744-8.363,8.363-8.363
		s8.375,3.743,8.375,8.363C42.93,116.515,39.195,120.259,34.578,120.259z"/>
	<path style="fill:#CADDDC;" d="M34.578,150.672h-0.023c-4.619,0-8.363-3.743-8.363-8.363c0-4.62,3.744-8.363,8.363-8.363
		s8.375,3.743,8.375,8.363C42.929,146.929,39.195,150.672,34.578,150.672z"/>
	<path style="fill:#CADDDC;" d="M61.339,181.083h-0.023c-4.619,0-8.363-3.743-8.363-8.363s3.744-8.363,8.363-8.363
		s8.375,3.743,8.375,8.363C69.69,177.34,65.957,181.083,61.339,181.083z"/>
	<path style="fill:#CADDDC;" d="M61.339,89.844h-0.023c-4.619,0-8.363-3.743-8.363-8.363c0-4.62,3.744-8.363,8.363-8.363
		s8.375,3.743,8.375,8.363C69.691,86.101,65.957,89.844,61.339,89.844z"/>
	<path style="fill:#CADDDC;" d="M61.339,120.259h-0.023c-4.619,0-8.363-3.743-8.363-8.363c0-4.62,3.744-8.363,8.363-8.363
		s8.375,3.743,8.375,8.363C69.691,116.515,65.957,120.259,61.339,120.259z"/>
	<path style="fill:#CADDDC;" d="M61.339,150.672h-0.023c-4.619,0-8.363-3.743-8.363-8.363c0-4.62,3.744-8.363,8.363-8.363
		s8.375,3.743,8.375,8.363C69.69,146.929,65.957,150.672,61.339,150.672z"/>
	<path style="fill:#CADDDC;" d="M88.101,181.083h-0.025c-4.619,0-8.363-3.743-8.363-8.363s3.744-8.363,8.363-8.363
		s8.375,3.743,8.375,8.363C96.452,177.34,92.718,181.083,88.101,181.083z"/>
	<path style="fill:#CADDDC;" d="M88.101,89.844h-0.025c-4.619,0-8.363-3.743-8.363-8.363c0-4.62,3.744-8.363,8.363-8.363
		s8.375,3.743,8.375,8.363C96.452,86.101,92.718,89.844,88.101,89.844z"/>
	<path style="fill:#CADDDC;" d="M88.101,120.259h-0.025c-4.619,0-8.363-3.743-8.363-8.363c0-4.62,3.744-8.363,8.363-8.363
		s8.375,3.743,8.375,8.363C96.452,116.515,92.718,120.259,88.101,120.259z"/>
	<path style="fill:#CADDDC;" d="M88.101,150.672h-0.025c-4.619,0-8.363-3.743-8.363-8.363c0-4.62,3.744-8.363,8.363-8.363
		s8.375,3.743,8.375,8.363C96.452,146.929,92.718,150.672,88.101,150.672z"/>
</g>
<path style="opacity:0.15;fill:#231F20;enable-background:new    ;" d="M17.841,484.601V27.4c0-14.277,11.575-25.853,25.854-25.853
	H25.854C11.575,1.547,0,13.123,0,27.4v457.2c0,14.278,11.575,25.853,25.854,25.853h17.841
	C29.416,510.454,17.841,498.879,17.841,484.601z"/>
<g>
	<path style="fill:#A8E2EF;" d="M304.297,401.23h-8.363h-7.248h-22.368h-8.363h-7.248h-10.632h-8.363h-7.248h-22.368h-8.363h-7.248
		c-3.24,0-5.867,2.626-5.867,5.867v25.912c0,3.24,2.626,5.867,5.867,5.867h7.248h8.363h22.368h7.248h8.363h10.632h7.248h8.363
		h22.368h7.248h8.363c3.24,0,5.867-2.626,5.867-5.867v-25.912C310.164,403.858,307.538,401.23,304.297,401.23z"/>
	<path style="fill:#A8E2EF;" d="M303.605,377.94H187.177c-4.619,0-8.363-3.743-8.363-8.363c0-4.62,3.744-8.363,8.363-8.363h116.428
		c4.619,0,8.363,3.743,8.363,8.363C311.968,374.197,308.224,377.94,303.605,377.94z"/>
	<path style="fill:#A8E2EF;" d="M303.605,347.376H187.177c-4.619,0-8.363-3.743-8.363-8.363c0-4.62,3.744-8.363,8.363-8.363h116.428
		c4.619,0,8.363,3.743,8.363,8.363C311.968,343.633,308.224,347.376,303.605,347.376z"/>
</g>
<path style="fill:#E5E541;" d="M291.94,112.935c0,0.542-0.44,0.982-0.983,0.982h-28.833c-0.544,0-0.985-0.44-0.985-0.982V84.101
	c0-0.542,0.44-0.985,0.985-0.985h28.833c0.543,0,0.983,0.442,0.983,0.985V112.935z"/>
<rect x="186.204" y="178.6" style="fill:#EBF25F;" width="38.068" height="31.009"/>
<path style="fill:#E5E541;" d="M322.742,143.736c0,0.542-0.44,0.982-0.982,0.982h-28.834c-0.544,0-0.985-0.44-0.985-0.982v-28.834
	c0-0.542,0.44-0.985,0.985-0.985h28.834c0.542,0,0.982,0.442,0.982,0.985V143.736z"/>
<g>
	<path style="fill:#EBF25F;" d="M322.742,112.935c0,0.542-0.44,0.982-0.982,0.982h-28.834c-0.544,0-0.985-0.44-0.985-0.982V84.101
		c0-0.542,0.44-0.985,0.985-0.985h28.834c0.542,0,0.982,0.442,0.982,0.985V112.935z"/>
	<path style="fill:#EBF25F;" d="M220.966,154.713c0,0.688-0.44,1.246-0.985,1.246h-28.833c-0.543,0-0.983-0.556-0.983-1.246v-36.469
		c0-0.688,0.439-1.246,0.983-1.246h28.833c0.544,0,0.985,0.556,0.985,1.246V154.713z"/>
</g>
<g>
	<path style="fill:#E5E541;" d="M251.767,208.623c0,0.546-0.44,0.989-0.985,0.989h-28.833c-0.543,0-0.983-0.443-0.983-0.989v-29.029
		c0-0.549,0.44-0.991,0.983-0.991h28.833c0.544,0,0.985,0.443,0.985,0.991V208.623z"/>
	<path style="fill:#E5E541;" d="M190.165,208.622c0,0.546-0.44,0.989-0.985,0.989h-28.833c-0.543,0-0.983-0.443-0.983-0.989v-29.028
		c0-0.549,0.44-0.991,0.983-0.991h28.833c0.544,0,0.985,0.443,0.985,0.991V208.622z"/>
	<rect x="190.162" y="145.917" style="fill:#E5E541;" width="30.801" height="32.682"/>
</g>
<g>
	<path style="opacity:0.15;fill:#231F20;enable-background:new    ;" d="M140.224,196.23V55.732c0-7.39,5.991-13.381,13.381-13.381
		h-17.841c-7.389,0-13.381,5.991-13.381,13.381V196.23c0,7.389,5.991,13.381,13.381,13.381h17.841
		C146.216,209.611,140.224,203.619,140.224,196.23z"/>
	<path style="opacity:0.15;fill:#231F20;enable-background:new    ;" d="M140.224,455.779V315.282
		c0-7.39,5.991-13.381,13.381-13.381h-17.841c-7.389,0-13.381,5.991-13.381,13.381v140.498c0,7.389,5.991,13.381,13.381,13.381
		h17.841C146.216,469.16,140.224,463.169,140.224,455.779z"/>
	<path style="opacity:0.1;fill:#231F20;enable-background:new    ;" d="M198.461,433.01v-25.912c0-3.24,2.626-5.867,5.867-5.867
		h-2.23h-8.363h-7.248c-3.24,0-5.867,2.626-5.867,5.867v25.912c0,3.24,2.626,5.867,5.867,5.867h7.248h8.363h2.23
		C201.087,438.877,198.461,436.25,198.461,433.01z"/>
</g>
</svg>